<svg width="88" height="86" viewBox="0 0 88 86" fill="none" xmlns="http://www.w3.org/2000/svg">
<g filter="url(#filter0_d_58_2)">
<g clip-path="url(#clip0_58_2)">
<rect x="7" y="4" width="67.2165" height="65.5854" rx="32.7927" fill="#733582"/>
<rect x="-4.67419" y="7.17603" width="90.6521" height="41.463" fill="#A43F79"/>
<circle cx="40.6084" cy="4.04263" r="32.7498" fill="#E7486C"/>
<g opacity="0.3" filter="url(#filter1_b_58_2)">
<ellipse cx="40.6081" cy="36.8354" rx="33.6082" ry="32.9215" fill="#FE5B80"/>
</g>
<g filter="url(#filter2_dii_58_2)">
<mask id="path-5-inside-1_58_2" fill="white">
<path fill-rule="evenodd" clip-rule="evenodd" d="M40.745 24.185C44.4337 24.185 47.4239 21.1948 47.4239 17.5061C47.4239 13.8174 44.4337 10.8271 40.745 10.8271C37.0563 10.8271 34.066 13.8174 34.066 17.5061C34.066 21.1948 37.0563 24.185 40.745 24.185ZM35.2447 51.2939H29.4313C27.8735 51.2939 26.9355 49.5674 27.7832 48.2605L34.6639 37.6527C34.8168 37.417 35.0158 37.2207 35.2447 37.0725V34.8578L29.8258 40.8399C28.7983 41.9743 27.1323 41.9743 26.1048 40.8399C25.0772 39.7056 25.0772 37.8664 26.1048 36.7321L35.9656 25.8462C36.3809 25.3877 36.9005 25.1145 37.4401 25.0267C37.6193 24.99 37.8048 24.9707 37.9949 24.9707H43.4952C43.6667 24.9707 43.8345 24.9864 43.9973 25.0164C44.5616 25.0915 45.108 25.3681 45.541 25.8462L55.4019 36.7321C56.4294 37.8664 56.4294 39.7056 55.4019 40.8399C54.3743 41.9743 52.7083 41.9743 51.6808 40.8399L46.2453 34.8395V37.0725C46.4743 37.2207 46.6732 37.417 46.8261 37.6527L53.7068 48.2605C54.5545 49.5674 53.6165 51.2939 52.0588 51.2939H46.2453V59.9373C46.2453 61.4562 45.014 62.6875 43.4952 62.6875H37.9949C36.476 62.6875 35.2447 61.4562 35.2447 59.9373V51.2939Z"/>
</mask>
<path fill-rule="evenodd" clip-rule="evenodd" d="M40.745 24.185C44.4337 24.185 47.4239 21.1948 47.4239 17.5061C47.4239 13.8174 44.4337 10.8271 40.745 10.8271C37.0563 10.8271 34.066 13.8174 34.066 17.5061C34.066 21.1948 37.0563 24.185 40.745 24.185ZM35.2447 51.2939H29.4313C27.8735 51.2939 26.9355 49.5674 27.7832 48.2605L34.6639 37.6527C34.8168 37.417 35.0158 37.2207 35.2447 37.0725V34.8578L29.8258 40.8399C28.7983 41.9743 27.1323 41.9743 26.1048 40.8399C25.0772 39.7056 25.0772 37.8664 26.1048 36.7321L35.9656 25.8462C36.3809 25.3877 36.9005 25.1145 37.4401 25.0267C37.6193 24.99 37.8048 24.9707 37.9949 24.9707H43.4952C43.6667 24.9707 43.8345 24.9864 43.9973 25.0164C44.5616 25.0915 45.108 25.3681 45.541 25.8462L55.4019 36.7321C56.4294 37.8664 56.4294 39.7056 55.4019 40.8399C54.3743 41.9743 52.7083 41.9743 51.6808 40.8399L46.2453 34.8395V37.0725C46.4743 37.2207 46.6732 37.417 46.8261 37.6527L53.7068 48.2605C54.5545 49.5674 53.6165 51.2939 52.0588 51.2939H46.2453V59.9373C46.2453 61.4562 45.014 62.6875 43.4952 62.6875H37.9949C36.476 62.6875 35.2447 61.4562 35.2447 59.9373V51.2939Z" fill="url(#paint0_linear_58_2)" shape-rendering="crispEdges"/>
<path d="M35.2447 51.2939H35.4294V51.1092H35.2447V51.2939ZM27.7832 48.2605L27.9381 48.361L27.7832 48.2605ZM34.6639 37.6527L34.8188 37.7532L34.6639 37.6527ZM35.2447 37.0725L35.345 37.2276L35.4294 37.173V37.0725H35.2447ZM35.2447 34.8578H35.4294V34.3789L35.1079 34.7338L35.2447 34.8578ZM29.8258 40.8399L29.9627 40.9639L29.8258 40.8399ZM26.1048 40.8399L25.9679 40.9639L26.1048 40.8399ZM26.1048 36.7321L25.9679 36.6081H25.9679L26.1048 36.7321ZM35.9656 25.8462L36.1025 25.9701L35.9656 25.8462ZM37.4401 25.0267L37.4698 25.2091L37.4772 25.2076L37.4401 25.0267ZM43.9973 25.0164L43.9638 25.1982L43.9729 25.1994L43.9973 25.0164ZM45.541 25.8462L45.4042 25.9701L45.541 25.8462ZM55.4019 36.7321L55.5387 36.6081L55.4019 36.7321ZM55.4019 40.8399L55.265 40.716L55.4019 40.8399ZM51.6808 40.8399L51.5439 40.9639L51.6808 40.8399ZM46.2453 34.8395L46.3822 34.7155L46.0607 34.3606V34.8395H46.2453ZM46.2453 37.0725H46.0607V37.173L46.145 37.2276L46.2453 37.0725ZM46.8261 37.6527L46.6712 37.7532L46.6712 37.7532L46.8261 37.6527ZM53.7068 48.2605L53.5519 48.361L53.7068 48.2605ZM46.2453 51.2939V51.1092H46.0607V51.2939H46.2453ZM47.2393 17.5061C47.2393 21.0928 44.3317 24.0004 40.745 24.0004V24.3697C44.5356 24.3697 47.6086 21.2968 47.6086 17.5061H47.2393ZM40.745 11.0118C44.3317 11.0118 47.2393 13.9194 47.2393 17.5061H47.6086C47.6086 13.7154 44.5356 10.6425 40.745 10.6425V11.0118ZM34.2507 17.5061C34.2507 13.9194 37.1583 11.0118 40.745 11.0118V10.6425C36.9543 10.6425 33.8814 13.7154 33.8814 17.5061H34.2507ZM40.745 24.0004C37.1583 24.0004 34.2507 21.0928 34.2507 17.5061H33.8814C33.8814 21.2968 36.9543 24.3697 40.745 24.3697V24.0004ZM35.2447 51.1092H29.4313V51.4785H35.2447V51.1092ZM29.4313 51.1092C28.0199 51.1092 27.1701 49.545 27.9381 48.361L27.6283 48.16C26.7009 49.5898 27.7271 51.4785 29.4313 51.4785V51.1092ZM27.9381 48.361L34.8188 37.7532L34.509 37.5522L27.6283 48.16L27.9381 48.361ZM34.8188 37.7532C34.9574 37.5396 35.1376 37.3618 35.345 37.2276L35.1444 36.9175C34.894 37.0796 34.6763 37.2943 34.509 37.5522L34.8188 37.7532ZM35.4294 37.0725V34.8578H35.0601V37.0725H35.4294ZM35.1079 34.7338L29.689 40.716L29.9627 40.9639L35.3816 34.9818L35.1079 34.7338ZM29.689 40.716C28.7347 41.7694 27.1959 41.7694 26.2416 40.716L25.9679 40.9639C27.0688 42.1792 28.8619 42.1792 29.9627 40.9639L29.689 40.716ZM26.2416 40.716C25.2778 39.652 25.2778 37.92 26.2416 36.856L25.9679 36.6081C24.8766 37.8128 24.8766 39.7592 25.9679 40.9639L26.2416 40.716ZM26.2416 36.856L36.1025 25.9701L35.8288 25.7222L25.9679 36.6081L26.2416 36.856ZM36.1025 25.9701C36.4902 25.5421 36.9723 25.2899 37.4698 25.2089L37.4104 24.8444C36.8287 24.9391 36.2716 25.2333 35.8288 25.7222L36.1025 25.9701ZM37.4772 25.2076C37.6442 25.1733 37.8173 25.1553 37.9949 25.1553V24.786C37.7923 24.786 37.5944 24.8066 37.4031 24.8458L37.4772 25.2076ZM37.9949 25.1553H43.4952V24.786H37.9949V25.1553ZM43.4952 25.1553C43.6554 25.1553 43.812 25.17 43.9638 25.198L44.0308 24.8348C43.857 24.8028 43.678 24.786 43.4952 24.786V25.1553ZM43.9729 25.1994C44.493 25.2687 44.9999 25.5238 45.4042 25.9701L45.6779 25.7222C45.2161 25.2124 44.6301 24.9144 44.0217 24.8334L43.9729 25.1994ZM45.4042 25.9701L55.265 36.856L55.5387 36.6081L45.6779 25.7222L45.4042 25.9701ZM55.265 36.856C56.2288 37.92 56.2288 39.652 55.265 40.716L55.5387 40.9639C56.63 39.7592 56.63 37.8128 55.5387 36.6081L55.265 36.856ZM55.265 40.716C54.3108 41.7694 52.7719 41.7694 51.8176 40.716L51.5439 40.9639C52.6448 42.1792 54.4379 42.1792 55.5387 40.9639L55.265 40.716ZM51.8176 40.716L46.3822 34.7155L46.1085 34.9634L51.5439 40.9639L51.8176 40.716ZM46.0607 34.8395V37.0725H46.43V34.8395H46.0607ZM46.145 37.2276C46.3524 37.3618 46.5326 37.5396 46.6712 37.7532L46.981 37.5522C46.8137 37.2943 46.5961 37.0796 46.3456 36.9175L46.145 37.2276ZM46.6712 37.7532L53.5519 48.361L53.8617 48.16L46.981 37.5522L46.6712 37.7532ZM53.5519 48.361C54.3199 49.545 53.4701 51.1092 52.0588 51.1092V51.4785C53.763 51.4785 54.7891 49.5898 53.8617 48.16L53.5519 48.361ZM52.0588 51.1092H46.2453V51.4785H52.0588V51.1092ZM46.0607 51.2939V59.9373H46.43V51.2939H46.0607ZM46.0607 59.9373C46.0607 61.3542 44.9121 62.5028 43.4952 62.5028V62.8721C45.116 62.8721 46.43 61.5582 46.43 59.9373H46.0607ZM43.4952 62.5028H37.9949V62.8721H43.4952V62.5028ZM37.9949 62.5028C36.578 62.5028 35.4294 61.3542 35.4294 59.9373H35.0601C35.0601 61.5581 36.374 62.8721 37.9949 62.8721V62.5028ZM35.4294 59.9373V51.2939H35.0601V59.9373H35.4294Z" fill="#FF6B00" mask="url(#path-5-inside-1_58_2)"/>
</g>
</g>
</g>
<defs>
<filter id="filter0_d_58_2" x="0.661304" y="0.387626" width="86.7096" height="85.0786" filterUnits="userSpaceOnUse" color-interpolation-filters="sRGB">
<feFlood flood-opacity="0" result="BackgroundImageFix"/>
<feColorMatrix in="SourceAlpha" type="matrix" values="0 0 0 0 0 0 0 0 0 0 0 0 0 0 0 0 0 0 127 0" result="hardAlpha"/>
<feOffset dx="3.4079" dy="6.13422"/>
<feGaussianBlur stdDeviation="4.8733"/>
<feComposite in2="hardAlpha" operator="out"/>
<feColorMatrix type="matrix" values="0 0 0 0 0 0 0 0 0 0 0 0 0 0 0 0 0 0 0.25 0"/>
<feBlend mode="normal" in2="BackgroundImageFix" result="effect1_dropShadow_58_2"/>
<feBlend mode="normal" in="SourceGraphic" in2="effect1_dropShadow_58_2" result="shape"/>
</filter>
<filter id="filter1_b_58_2" x="-133.88" y="-136.966" width="348.976" height="347.603" filterUnits="userSpaceOnUse" color-interpolation-filters="sRGB">
<feFlood flood-opacity="0" result="BackgroundImageFix"/>
<feGaussianBlur in="BackgroundImageFix" stdDeviation="70.44"/>
<feComposite in2="SourceAlpha" operator="in" result="effect1_backgroundBlur_58_2"/>
<feBlend mode="normal" in="SourceGraphic" in2="effect1_backgroundBlur_58_2" result="shape"/>
</filter>
<filter id="filter2_dii_58_2" x="24.4148" y="10.2103" width="33.2271" height="54.0486" filterUnits="userSpaceOnUse" color-interpolation-filters="sRGB">
<feFlood flood-opacity="0" result="BackgroundImageFix"/>
<feColorMatrix in="SourceAlpha" type="matrix" values="0 0 0 0 0 0 0 0 0 0 0 0 0 0 0 0 0 0 127 0" result="hardAlpha"/>
<feOffset dx="0.825046"/>
<feGaussianBlur stdDeviation="0.30841"/>
<feComposite in2="hardAlpha" operator="out"/>
<feColorMatrix type="matrix" values="0 0 0 0 0 0 0 0 0 0 0 0 0 0 0 0 0 0 0.25 0"/>
<feBlend mode="normal" in2="BackgroundImageFix" result="effect1_dropShadow_58_2"/>
<feBlend mode="normal" in="SourceGraphic" in2="effect1_dropShadow_58_2" result="shape"/>
<feColorMatrix in="SourceAlpha" type="matrix" values="0 0 0 0 0 0 0 0 0 0 0 0 0 0 0 0 0 0 127 0" result="hardAlpha"/>
<feOffset dx="1.46937" dy="1.57152"/>
<feGaussianBlur stdDeviation="1.02934"/>
<feComposite in2="hardAlpha" operator="arithmetic" k2="-1" k3="1"/>
<feColorMatrix type="matrix" values="0 0 0 0 1 0 0 0 0 1 0 0 0 0 1 0 0 0 0.25 0"/>
<feBlend mode="normal" in2="shape" result="effect2_innerShadow_58_2"/>
<feColorMatrix in="SourceAlpha" type="matrix" values="0 0 0 0 0 0 0 0 0 0 0 0 0 0 0 0 0 0 127 0" result="hardAlpha"/>
<feOffset dx="-0.919337" dy="1.57152"/>
<feGaussianBlur stdDeviation="1.09417"/>
<feComposite in2="hardAlpha" operator="arithmetic" k2="-1" k3="1"/>
<feColorMatrix type="matrix" values="0 0 0 0 0.411765 0 0 0 0 0.411765 0 0 0 0 0.411765 0 0 0 0.25 0"/>
<feBlend mode="normal" in2="effect2_innerShadow_58_2" result="effect3_innerShadow_58_2"/>
</filter>
<linearGradient id="paint0_linear_58_2" x1="22.7804" y1="4.34461" x2="56.9612" y2="63.8659" gradientUnits="userSpaceOnUse">
<stop stop-color="#1D0E00"/>
<stop offset="0.337646" stop-color="#FFC692" stop-opacity="0.945098"/>
<stop offset="1" stop-color="#88480C"/>
</linearGradient>
<clipPath id="clip0_58_2">
<rect x="7" y="4" width="67.2165" height="65.5854" rx="32.7927" fill="white"/>
</clipPath>
</defs>
</svg>
